# xmcd CD database file
#
# Track frame offsets:
#	150
#	16155
#	30075
#	44865
#	59530
#	73955
#	88435
#	102800
#	118400
#	131265
#	145585
#	158480
#	173880
#	189150
#	202255
#	224640
#	239065
#	251905
#	265435
#	280665
#
# Disc length: 3954 seconds
#
# Revision: 0
# Processed by: cddbd v1.5.2PL0 Copyright (c) Steve Scherf et al.
# Submitted via: CDex 1.70beta2
#
DISCID=380f7014
DTITLE=Glenn Miller - American Jazz Bandleader [CD1)
DYEAR=2008
DGENRE=Jazz
TTITLE0=In the mood
TTITLE1=Elmer's tune
TTITLE2=American patrol
TTITLE3=I've got a gal in Kalamazoo
TTITLE4=My blue heaven
TTITLE5=Pennsylvania 6-5000
TTITLE6=My melancholy baby
TTITLE7=Serenade in blue
TTITLE8=When you wish upon a star
TTITLE9=Don't sit under the apple tree
TTITLE10=Moon love
TTITLE11=Sunrise serenade
TTITLE12=Song of the Volga boatman
TTITLE13=Bugle call rag
TTITLE14=Anvil chorus
TTITLE15=People will say we're in love
TTITLE16=Stairway to the stars
TTITLE17=Glen island special
TTITLE18=Stardust
TTITLE19=King Porter stomp
EXTD=YEAR: 2008
EXTT0=
EXTT1=
EXTT2=
EXTT3=
EXTT4=
EXTT5=
EXTT6=
EXTT7=
EXTT8=
EXTT9=
EXTT10=
EXTT11=
EXTT12=
EXTT13=
EXTT14=
EXTT15=
EXTT16=
EXTT17=
EXTT18=
EXTT19=
PLAYORDER=
